<?xml version="1.0" standalone="no"?>
<!DOCTYPE svg PUBLIC "-//W3C//DTD SVG 20010904//EN"
 "http://www.w3.org/TR/2001/REC-SVG-20010904/DTD/svg10.dtd">
<svg version="1.0" xmlns="http://www.w3.org/2000/svg"
 width="600.000000pt" height="600.000000pt" viewBox="0 0 600.000000 600.000000"
 preserveAspectRatio="xMidYMid meet">
<metadata>
Created by potrace 1.11, written by Peter Selinger 2001-2013
</metadata>
<g transform="translate(0.000000,600.000000) scale(0.100000,-0.100000)"
fill="#000000" stroke="none">
<path d="M2210 4221 l0 -351 150 0 150 0 0 206 0 205 323 -3 c356 -5 380 -8
512 -74 228 -112 365 -330 365 -579 0 -120 -21 -213 -70 -312 -82 -166 -231
-285 -425 -340 -49 -13 -120 -17 -382 -21 l-323 -4 0 186 0 186 -149 0 -148 0
-6 -67 c-4 -38 -7 -474 -7 -970 l0 -903 148 0 149 0 6 636 c3 350 7 637 9 639
2 2 153 5 334 7 l331 3 19 -31 c11 -17 72 -117 138 -223 l118 -191 183 0 183
0 -159 264 c-87 145 -159 266 -159 269 0 3 30 22 67 42 81 45 101 59 177 133
277 269 355 735 186 1109 -84 185 -280 365 -484 444 -45 17 -128 43 -186 57
-103 25 -113 25 -577 29 l-473 5 0 -351z"/>
<path d="M1915 3743 c-74 -11 -197 -48 -272 -83 -216 -101 -370 -252 -473
-465 -118 -243 -132 -513 -39 -769 112 -310 402 -558 724 -620 138 -26 201
-29 219 -11 35 36 4 65 -70 65 -189 0 -414 96 -571 244 -289 272 -372 687
-209 1040 116 252 328 431 601 508 79 22 88 23 894 28 734 4 815 7 824 21 6 9
7 24 4 33 -6 15 -74 16 -804 15 -439 -1 -811 -4 -828 -6z"/>
<path d="M4151 3732 c-6 -11 -6 -24 0 -35 9 -15 34 -17 269 -17 235 0 260 2
269 17 6 11 6 24 0 35 -9 17 -31 18 -269 18 -238 0 -260 -1 -269 -18z"/>
<path d="M1895 3495 c-81 -18 -139 -40 -205 -77 -215 -121 -349 -321 -381
-567 -19 -147 16 -323 88 -451 124 -217 370 -371 597 -374 l81 -1 0 30 0 30
-75 7 c-142 14 -263 62 -366 144 -345 275 -345 783 0 1058 70 56 125 85 221
117 l70 24 804 5 c725 5 805 7 814 21 6 9 7 24 4 33 -6 15 -74 16 -799 15
-624 0 -806 -3 -853 -14z"/>
<path d="M4151 3492 c-6 -11 -6 -24 0 -35 9 -16 39 -17 359 -17 320 0 350 1
359 17 6 11 6 24 0 35 -9 17 -35 18 -359 18 -324 0 -350 -1 -359 -18z"/>
<path d="M4248 2809 c-24 -13 -23 -46 1 -59 12 -6 123 -10 292 -10 l272 0 -7
-70 c-35 -356 -285 -656 -646 -776 l-85 -28 -720 -6 c-396 -3 -726 -9 -732
-13 -20 -13 -15 -45 8 -57 14 -8 221 -10 712 -8 l692 4 100 27 c206 55 402
180 527 337 136 170 218 388 218 581 0 57 -3 70 -19 79 -26 14 -590 13 -613
-1z"/>
<path d="M4068 2569 c-24 -13 -23 -46 1 -59 12 -6 106 -10 235 -10 119 0 216
-4 216 -8 0 -14 -67 -120 -105 -167 -50 -61 -145 -131 -230 -171 -136 -63
-152 -64 -894 -64 -643 0 -671 -1 -680 -19 -7 -13 -7 -23 2 -35 11 -15 67 -17
722 -14 l710 3 70 24 c151 51 270 129 360 238 58 70 130 204 141 261 l7 32
-269 0 c-164 0 -276 -5 -286 -11z"/>
<path d="M3825 1614 c14 -25 52 -87 84 -137 l57 -92 182 -3 c100 -1 182 0 182
4 0 3 -37 66 -82 140 l-83 133 -183 1 -184 0 27 -46z"/>
</g>
</svg>
