<?xml version="1.0" encoding="UTF-8" standalone="no"?>
<!-- Generator: Adobe Illustrator 18.1.1, SVG Export Plug-In . SVG Version: 6.00 Build 0)  -->

<svg
   xmlns:dc="http://purl.org/dc/elements/1.1/"
   xmlns:cc="http://creativecommons.org/ns#"
   xmlns:rdf="http://www.w3.org/1999/02/22-rdf-syntax-ns#"
   xmlns:svg="http://www.w3.org/2000/svg"
   xmlns="http://www.w3.org/2000/svg"
   xmlns:sodipodi="http://sodipodi.sourceforge.net/DTD/sodipodi-0.dtd"
   xmlns:inkscape="http://www.inkscape.org/namespaces/inkscape"
   version="1.1"
   x="0px"
   y="0px"
   viewBox="0 0 200 200"
   enable-background="new 0 0 640 1136"
   xml:space="preserve"
   id="svg2"
   inkscape:version="0.91 r"
   sodipodi:docname="candycrowd.svg"
   width="200"
   height="200"><metadata
     id="metadata52"><rdf:RDF><cc:Work
         rdf:about=""><dc:format>image/svg+xml</dc:format><dc:type
           rdf:resource="http://purl.org/dc/dcmitype/StillImage" /><dc:title></dc:title></cc:Work></rdf:RDF></metadata><defs
     id="defs50" /><sodipodi:namedview
     pagecolor="#ffffff"
     bordercolor="#666666"
     borderopacity="1"
     objecttolerance="10"
     gridtolerance="10"
     guidetolerance="10"
     inkscape:pageopacity="0"
     inkscape:pageshadow="2"
     inkscape:window-width="1920"
     inkscape:window-height="1029"
     id="namedview48"
     showgrid="false"
     fit-margin-top="0"
     fit-margin-left="0"
     fit-margin-right="0"
     fit-margin-bottom="0"
     inkscape:zoom="1"
     inkscape:cx="87.026626"
     inkscape:cy="180.9926"
     inkscape:window-x="0"
     inkscape:window-y="0"
     inkscape:window-maximized="1"
     inkscape:current-layer="svg2" /><g
     id="Layer_2"
     transform="matrix(0.45088804,0,0,0.47762222,-43.930429,-115.091)"><path
       d="m 541,500.6 c 0,87 -98.9,157.5 -221,157.5 -122.1,0 -216.3,-70.7 -222,-157.6 -2.3,-35.5 1.8,-67.9 22.9,-94.2 8.4,-10.5 18.9,-32.2 32.4,-40.4 11.5,-7.1 24.9,-3.9 40.5,-7.2 14.7,-3.2 16.4,-5.6 35,-8.5 14.7,-2.3 31.4,-0.4 53,-1.8 11.5,-0.7 28.4,-5.2 38.2,-5.2 13.2,0 19.6,4.6 31.2,5.2 17.6,0.9 32.9,-3.2 47.5,-1 11.4,1.7 16.1,6 25.8,8.5 21.8,5.6 32.2,-4.2 63.5,13 12.8,7.1 23.8,24.5 30.2,35.5 5.9,10 22.8,59.4 22.8,96.2 z"
       id="path10"
       inkscape:connector-curvature="0"
       style="fill:#ec8d23" /><path
       stroke-miterlimit="10"
       d="m 482,377.4 c -1.5,-11.8 -71.3,-25.8 -163,-25.8 -91.7,0 -155,12 -164,25.8 -2.7,4.2 6.6,4.7 20.2,8.8 12.4,3.7 14.9,1.8 36.1,1 12.4,-0.4 24.2,11.5 45.9,12.9 21.2,1.4 21.6,0.2 55.7,-6.1 19.6,-3.6 35.7,7.7 53.8,6.6 25.5,-1.5 29.8,-1.7 47.8,-11.2 13.3,-7 25.5,-1.4 39.8,-1.2 14.4,0.1 28.2,-7.2 27.7,-10.8 z"
       id="path12"
       inkscape:connector-curvature="0"
       style="fill:#3e2a14;stroke:#000000;stroke-miterlimit:10" /><path
       d="m 264,516.1 c 1,126.7 53,145.2 47.3,142.7 -51.7,-23 -62.3,-117.4 -62.3,-144.2 0,-70.8 4.7,-120.8 14,-120.8 0.9,0 4.6,-0.7 5,2.6 2.7,20.4 -4.2,96.7 -4,119.7 z"
       id="path14"
       inkscape:connector-curvature="0"
       style="fill:#3e2a14" /><path
       d="m 375,516.8 c -1,126.7 -53,145.2 -47.3,142.7 51.7,-23 62.3,-117.4 62.3,-144.2 0,-56.7 -3.2,-100.6 -9.2,-115.6 -1.5,-3.7 -0.2,-0.5 -2.1,-0.4 -0.9,0 -2.8,-0.6 -5.8,-0.2 -1.2,0.1 -2.1,0.1 -2.2,1.7 -1.5,25 4.5,94.4 4.3,116 z"
       id="path16"
       inkscape:connector-curvature="0"
       style="fill:#3e2a14" /><path
       d="m 491.3,508.4 c -2.2,13.5 -5.2,28.8 -10,42.3 -33.1,93.8 -125.1,106.7 -130.6,106.7 -5.2,0 61.7,1.5 116.2,-102.4 1.1,-2.1 11.3,-30.7 12.5,-52.8 1.1,-20.7 -2.5,-41 -2.8,-44.9 -2.4,-25.5 -13.8,-55.4 -21,-71.7 -2.6,-5.9 7.7,-9.7 10.5,-9.7 4.3,0 11.7,21.4 19.8,49.3 11.4,38.9 8.4,65.4 5.4,83.2 z"
       id="path18"
       inkscape:connector-curvature="0"
       style="fill:#3e2a14" /><path
       d="m 147.4,508.4 c 2.2,13.5 5.2,28.8 10,42.3 33.1,93.8 125.1,106.7 130.6,106.7 5.2,0 -61.7,1.5 -116.2,-102.4 -1.1,-2.1 -11.3,-30.7 -12.5,-52.8 -1.1,-20.7 2.5,-41 2.8,-44.9 2.4,-25.5 13.8,-55.4 21,-71.7 2.6,-5.9 -7.7,-9.7 -10.5,-9.7 -4.3,0 -11.7,21.4 -19.8,49.3 -11.4,38.9 -8.4,65.4 -5.4,83.2 z"
       id="path20"
       inkscape:connector-curvature="0"
       style="fill:#3e2a14" /><path
       d="m 376.1,316.3 -47.4,-26.9 c -5.7,-3.3 -7.8,-10.6 -4.5,-16.4 l 6.4,-11.3 c 3.3,-5.7 10.6,-7.8 16.4,-4.5 l 47.4,26.9 c 5.7,3.3 7.8,10.6 4.5,16.4 l -6.4,11.3 c -3.3,5.7 -10.7,7.8 -16.4,4.5 z"
       id="path22"
       inkscape:connector-curvature="0"
       style="fill:#ec8d23" /></g><g
     id="Layer_3"
     transform="matrix(0.45088804,0,0,0.47762222,-43.930429,-115.091)"><path
       d="m 376.1,316.3 -47.4,-26.9 c -5.7,-3.3 -7.8,-10.6 -4.5,-16.4 l 6.4,-11.3 c 3.3,-5.7 10.6,-7.8 16.4,-4.5 l 47.4,26.9 c 5.7,3.3 7.8,10.6 4.5,16.4 l -6.4,11.3 c -3.3,5.7 -10.7,7.8 -16.4,4.5 z"
       id="path25"
       inkscape:connector-curvature="0"
       style="fill:#935fa7" /><path
       d="m 420.2,320 c -1.6,2.8 10.7,13.3 5.4,12.6 -1.9,-0.2 -12.2,-9.6 -14.4,-10.3 -3.2,-1 1.4,6.4 -2,4.4 -12.1,-6.9 -19.5,-16.8 -16.4,-22.2 3,-5.4 15.3,-4.1 27.4,2.7 2.9,1.6 -7.6,1.4 -5.3,3.3 1.8,1.5 18.3,6.6 19.6,8.1 4.2,4.8 -12.5,-1.7 -14.3,1.4 z"
       id="path27"
       inkscape:connector-curvature="0"
       style="fill:#935fa7" /><path
       d="m 302.8,253.6 c 1.6,-2.8 -10.7,-13.3 -5.4,-12.6 1.9,0.2 12.2,9.6 14.4,10.3 3.2,1 -1.4,-6.4 2,-4.4 12.1,6.9 19.5,16.8 16.4,22.2 -3.1,5.4 -15.3,4.1 -27.4,-2.7 -2.9,-1.6 7.6,-1.4 5.3,-3.3 -1.8,-1.5 -18.3,-6.6 -19.6,-8.1 -4.1,-4.8 12.6,1.7 14.3,-1.4 z"
       id="path29"
       inkscape:connector-curvature="0"
       style="fill:#935fa7" /><path
       d="M 379,313.6 326.9,284 c -2,-1.1 1.6,0.4 5.4,1.8 3.8,1.3 6.3,-0.2 4.8,-3 l -0.4,-0.7 c 0,0 0,0 0,0 1.9,0.7 3.6,0.7 4.8,0.3 1.5,-0.6 3.9,-0.3 6.3,0.9 0.7,0.3 1.4,0.6 2.1,0.9 l 38.1,13.6 c 0,0 0,0 0,0 3.6,2 5.7,5.2 4.6,7.1 l -5.2,9.1 c -1,1.8 -4.8,1.7 -8.4,-0.4 z"
       id="path31"
       inkscape:connector-curvature="0"
       style="opacity:0.25;fill:#ffffff" /><path
       d="m 344.9,258.5 52.1,29.6 c 2,1.1 -1.6,-0.4 -5.4,-1.8 -3.8,-1.3 -6.3,0.2 -4.8,3 l 0.4,0.7 c 0,0 0,0 0,0 -1.9,-0.7 -3.6,-0.7 -4.8,-0.3 -1.5,0.6 -3.9,0.3 -6.3,-0.9 -0.7,-0.3 -1.4,-0.6 -2.1,-0.9 l -38.1,-13.6 c 0,0 0,0 0,0 -3.6,-2 -5.7,-5.2 -4.6,-7.1 l 5.2,-9.1 c 1,-1.8 4.8,-1.7 8.4,0.4 z"
       id="path33"
       inkscape:connector-curvature="0"
       style="opacity:0.25;fill:#ffffff" /><path
       d="m 308.6,256.8 c 1,-1.8 -6.7,-8.4 -3.4,-7.9 1.2,0.2 7.7,6 9,6.5 2,0.6 -0.9,-4 1.3,-2.8 7.6,4.3 12.2,10.6 10.3,13.9 -1.9,3.3 -9.6,2.6 -17.3,-1.7 -1.8,-1 4.8,-0.9 3.3,-2.1 -1.1,-0.9 -11.5,-4.2 -12.3,-5.1 -2.4,-2.9 8,1.2 9.1,-0.8 z"
       id="path35"
       inkscape:connector-curvature="0"
       style="opacity:0.1;fill:#f1f2f2" /><path
       d="m 414.4,316.7 c -1,1.8 6.7,8.4 3.4,7.9 -1.2,-0.2 -7.7,-6 -9,-6.5 -2,-0.6 0.9,4 -1.3,2.8 -7.6,-4.3 -12.2,-10.6 -10.3,-13.9 1.9,-3.3 9.6,-2.6 17.3,1.7 1.8,1 -4.8,0.9 -3.3,2.1 1.1,0.9 11.5,4.2 12.3,5.1 2.5,3 -8,-1.1 -9.1,0.8 z"
       id="path37"
       inkscape:connector-curvature="0"
       style="opacity:0.1;fill:#f1f2f2" /></g><path
     style="fill:#935fa7"
     inkscape:connector-curvature="0"
     id="path40"
     d="m 50.530617,37.557064 c -2.4348,-1.28958 -9.55883,-3.86874 -10.73114,-5.97028 -2.3897,-4.39412 3.78746,-9.64797 5.72628,-11.70174 1.75846,-1.86273 5.45575,-7.68972 9.19812,-5.68371 2.29953,1.24182 3.87763,5.58818 6.98876,11.79727 3.92273,7.88077 8.43161,13.80329 5.59101,16.81231 -2.88568,3.00902 -9.33338,-1.28958 -16.77303,-5.25385 z" /><path
     style="fill:#e5a32b;stroke:#d2d2d2;stroke-width:0.46406266;stroke-miterlimit:10;stroke-opacity:1"
     inkscape:connector-curvature="0"
     id="path42"
     d="m 50.530617,37.557064 c -2.4348,-1.28958 -9.19812,-2.86573 -10.91149,-6.0658 -2.29953,-4.39413 3.69728,-10.07783 5.59101,-12.13161 1.75846,-1.86272 5.72628,-7.11657 9.46865,-5.20608 2.84059,1.48063 3.87764,5.58818 6.98876,11.79727 3.92273,7.88077 8.43161,13.80328 5.59101,16.8123 -2.7955,3.00902 -9.2432,-1.28958 -16.72794,-5.20608 z"
     stroke-miterlimit="10" /><path
     style="fill:#ffffff"
     inkscape:connector-curvature="0"
     id="path44"
     d="m 61.081397,36.697344 c 1.75846,-1.86273 3.78746,-4.77622 5.04994,-2.24482 1.80356,3.58216 2.79551,6.40013 1.03705,8.26286 -1.6232,1.71944 -4.41871,1.00301 -7.89054,-0.57315 -2.66024,-1.24181 -0.13527,-3.43888 1.80355,-5.44489 z" /><path
     style="fill:#faf070"
     inkscape:connector-curvature="0"
     id="path46"
     d="m 47.103867,36.028674 c -2.4348,-1.28958 -6.17717,-2.29259 -7.30439,-4.39412 -2.3897,-4.39413 3.47184,-10.03007 5.36557,-12.03608 1.75846,-1.86273 5.77137,-7.35539 9.51374,-5.34937 2.29953,1.24181 2.16426,2.05377 5.2303,8.2151 0,0 -3.87764,3.72545 -6.71823,6.73447 -2.79551,2.96126 -6.08699,6.83 -6.08699,6.83 z" /></svg>