<?xml version="1.0" encoding="UTF-8" standalone="no"?>
<!-- Created with Inkscape (http://www.inkscape.org/) -->

<svg
   xmlns:dc="http://purl.org/dc/elements/1.1/"
   xmlns:cc="http://creativecommons.org/ns#"
   xmlns:rdf="http://www.w3.org/1999/02/22-rdf-syntax-ns#"
   xmlns:svg="http://www.w3.org/2000/svg"
   xmlns="http://www.w3.org/2000/svg"
   xmlns:sodipodi="http://sodipodi.sourceforge.net/DTD/sodipodi-0.dtd"
   xmlns:inkscape="http://www.inkscape.org/namespaces/inkscape"
   width="150.38965"
   height="112.43414"
   id="svg2"
   version="1.1"
   inkscape:version="0.48.4 r9939"
   sodipodi:docname="mylogo.dxf">
  <defs
     id="defs4" />
  <sodipodi:namedview
     id="base"
     pagecolor="#ffffff"
     bordercolor="#666666"
     borderopacity="1.0"
     inkscape:pageopacity="0.0"
     inkscape:pageshadow="2"
     inkscape:zoom="2.8284271"
     inkscape:cx="51.443109"
     inkscape:cy="28.450682"
     inkscape:document-units="px"
     inkscape:current-layer="layer1"
     showgrid="false"
     inkscape:window-width="1920"
     inkscape:window-height="1000"
     inkscape:window-x="0"
     inkscape:window-y="29"
     inkscape:window-maximized="1"
     fit-margin-top="0"
     fit-margin-left="0"
     fit-margin-right="0"
     fit-margin-bottom="0" />
  <metadata
     id="metadata7">
    <rdf:RDF>
      <cc:Work
         rdf:about="">
        <dc:format>image/svg+xml</dc:format>
        <dc:type
           rdf:resource="http://purl.org/dc/dcmitype/StillImage" />
        <dc:title></dc:title>
      </cc:Work>
    </rdf:RDF>
  </metadata>
  <g
     inkscape:label="Layer 1"
     inkscape:groupmode="layer"
     id="layer1"
     transform="translate(-506.5791,-500.32347)">
    <g
       id="g3899">
      <path
         sodipodi:nodetypes="cccsccsccccccccccccccccccccccccccccccccsccc"
         inkscape:connector-curvature="0"
         id="path3078"
         d="m 615.75,531.1875 c -5.8377,9e-5 -11.18637,1.03348 -16.0625,3.09375 -4.80752,1.99175 -8.96618,4.82269 -12.46875,8.53125 -3.43394,3.7087 -6.10827,8.16168 -8.03125,13.3125 -1.30721,3.50146 -2.15014,7.27206 -2.5625,11.28125 l 14.4375,16.40625 c -0.62539,-3.39428 -0.93751,-7.12905 -0.9375,-11.21875 -2e-5,-5.63158 0.58245,-10.66086 1.75,-15.125 1.23619,-4.46404 2.9836,-8.25316 5.25,-11.34375 2.26637,-3.09045 5.04716,-5.47665 8.34375,-7.125 3.29653,-1.6482 7.02933,-2.46868 11.21875,-2.46875 2.74709,7e-5 5.42142,0.40087 8.03125,1.15625 2.6784,0.75554 5.06459,1.92047 7.125,3.5 2.06029,1.57967 3.70123,3.59015 4.9375,6.0625 1.30483,2.40381 1.96868,5.29106 1.96875,8.65625 l 4.9375,0 1.34375,-23.6875 -3.625,0 -2.15625,6.375 c -4.25812,-2.6097 -8.20386,-4.48864 -11.84375,-5.65625 -3.64001,-1.16745 -7.53559,-1.74991 -11.65625,-1.75 z m 11.96875,47.94511 0,3.90625 c 3.63989,3e-5 6.23282,0.71403 7.8125,2.15625 1.64821,1.3736 2.46869,4.04793 2.46875,8.03125 -6e-5,1.92302 -0.47607,3.77688 -1.4375,5.5625 -0.89288,1.71697 -2.27076,3.28269 -4.125,4.65625 -1.78571,1.3049 -3.98402,2.36336 -6.59375,3.1875 -1.43861,0.41644 -2.98204,0.69035 -4.625,0.875 l 0,5.25 c 1.09194,-0.17368 2.15807,-0.38174 3.1875,-0.65625 3.15914,-0.82414 5.93996,-1.93892 8.34375,-3.3125 1.92294,-1.09885 3.59512,-1.94439 4.96875,-2.5625 1.44218,-0.68678 2.73865,-1.2191 3.90625,-1.5625 1.16746,-0.41206 2.25099,-0.65005 3.28125,-0.71875 1.09877,-0.13733 2.32005,-0.18749 3.625,-0.1875 l 0,-11.5625 c -7e-5,-1.78562 0.10638,-3.2387 0.3125,-4.40625 0.27464,-1.16751 0.69432,-2.09444 1.3125,-2.78125 0.68671,-0.75543 1.58856,-1.28777 2.6875,-1.5625 1.09877,-0.27469 2.47663,-0.40622 4.125,-0.40625 l 0,-3.90625 z"
         style="font-size:102.37823486px;font-style:normal;font-variant:normal;font-weight:normal;font-stretch:normal;line-height:125%;letter-spacing:0px;word-spacing:0px;fill:#71c837;fill-opacity:1;stroke:none;font-family:Libre Baskerville;-inkscape-font-specification:Libre Baskerville" />
      <path
         sodipodi:nodetypes="csccccccccccccccccccccscsscccccscccsccccccc"
         inkscape:connector-curvature="0"
         id="path3082"
         d="m 588.19633,526.02025 c -8e-5,7.10108 -2.13039,13.00379 -6.39091,17.70814 -4.26068,4.70448 -11.05101,7.85555 -20.37102,9.45322 l 39.78195,45.23772 c 2.3965,2.92918 5.01499,5.05948 7.85549,6.39091 2.92907,1.24268 6.39081,2.17469 10.38523,2.79602 l 0,5.05947 -25.69678,0 -42.9774,-51.62863 c -1.15397,-1.50892 -2.2635,-2.70721 -3.3286,-3.59488 -0.97644,-0.88758 -2.04159,-1.5533 -3.19546,-1.99716 -1.06519,-0.53253 -2.35225,-0.8432 -3.86117,-0.93201 -1.42024,-0.17748 -3.15111,-0.26624 -5.19261,-0.26629 l 0,27.69394 c -4e-5,3.28424 0.17749,5.99149 0.53257,8.12178 0.44378,2.04155 1.28702,3.63928 2.52974,4.79318 1.3314,1.15392 3.19541,1.95279 5.59204,2.39659 2.48531,0.35506 5.72514,0.53258 9.71951,0.53258 l 0,5.05947 -46.99981,0 0,-5.05947 c 3.10668,-0.0888 5.59203,-0.35505 7.45606,-0.79886 1.95276,-0.44381 3.46173,-1.19829 4.52689,-2.26345 1.06514,-1.06514 1.77524,-2.57411 2.13031,-4.52689 0.35503,-1.95277 0.53255,-4.4825 0.53257,-7.58921 l 0,-62.04507 c -2e-5,-3.10661 -0.17754,-5.59196 -0.53257,-7.45606 -0.26631,-1.95269 -0.88765,-3.46165 -1.86402,-4.5269 -0.88764,-1.15382 -2.21908,-1.9083 -3.99432,-2.26344 -1.77526,-0.44372 -4.08309,-0.75439 -6.92348,-0.93201 l 0,-5.05947 41.8072,0 c 12.24918,1e-4 21.70239,2.26355 28.35965,6.79034 6.74588,4.52698 10.11886,10.82912 10.11894,18.90644 m -52.99128,21.56932 9.45322,0 c 8.87621,5e-5 15.44463,-1.59767 19.7053,-4.79319 4.3493,-3.28415 6.52398,-8.65428 6.52405,-16.11041 -7e-5,-7.18969 -1.73094,-12.33792 -5.19261,-15.4447 -3.37304,-3.1066 -8.6988,-4.65994 -15.97727,-4.66004 l -12.24925,0 c -1.509,10e-5 -2.26348,0.75458 -2.26344,2.26345 l 0,38.74489"
         style="font-size:133.14393616px;font-style:normal;font-variant:normal;font-weight:normal;font-stretch:normal;line-height:125%;letter-spacing:0px;word-spacing:0px;fill:#1a1a1a;fill-opacity:1;stroke:none;font-family:Libre Baskerville;-inkscape-font-specification:Libre Baskerville" />
    </g>
  </g>
</svg>
