<?xml version="1.0" encoding="UTF-8" standalone="no"?>
<!-- Created with Inkscape (http://www.inkscape.org/) -->

<svg
   xmlns:dc="http://purl.org/dc/elements/1.1/"
   xmlns:cc="http://creativecommons.org/ns#"
   xmlns:rdf="http://www.w3.org/1999/02/22-rdf-syntax-ns#"
   xmlns:svg="http://www.w3.org/2000/svg"
   xmlns="http://www.w3.org/2000/svg"
   xmlns:sodipodi="http://sodipodi.sourceforge.net/DTD/sodipodi-0.dtd"
   xmlns:inkscape="http://www.inkscape.org/namespaces/inkscape"
   width="800"
   height="320"
   id="svg3327"
   version="1.1"
   inkscape:version="0.48.3.1 r9886"
   sodipodi:docname="que-hero.svg">
  <defs
     id="defs3329" />
  <sodipodi:namedview
     id="base"
     pagecolor="#ffffff"
     bordercolor="#666666"
     borderopacity="1.0"
     inkscape:pageopacity="0.0"
     inkscape:pageshadow="2"
     inkscape:zoom="0.49497475"
     inkscape:cx="1341.4576"
     inkscape:cy="39.403775"
     inkscape:document-units="px"
     inkscape:current-layer="layer1"
     showgrid="false"
     fit-margin-top="0"
     fit-margin-left="0"
     fit-margin-right="0"
     fit-margin-bottom="0"
     inkscape:window-width="1920"
     inkscape:window-height="1000"
     inkscape:window-x="1920"
     inkscape:window-y="25"
     inkscape:window-maximized="1" />
  <metadata
     id="metadata3332">
    <rdf:RDF>
      <cc:Work
         rdf:about="">
        <dc:format>image/svg+xml</dc:format>
        <dc:type
           rdf:resource="http://purl.org/dc/dcmitype/StillImage" />
        <dc:title />
      </cc:Work>
    </rdf:RDF>
  </metadata>
  <g
     inkscape:label="Layer 1"
     inkscape:groupmode="layer"
     id="layer1"
     transform="translate(-79.970924,-493.31891)">
    <rect
       style="fill:none;stroke:#ececec;stroke-width:2;stroke-miterlimit:4;stroke-opacity:1;stroke-dasharray:none"
       id="rect3234"
       width="797.92267"
       height="448"
       x="80.975853"
       y="563.57147" />
    <rect
       style="fill:#333333;fill-opacity:1;stroke:none"
       id="rect3236"
       width="799.85321"
       height="26.760021"
       x="80.046127"
       y="537.88879" />
    <rect
       ry="7.0710678"
       rx="7.0710678"
       style="fill:#ececec;fill-opacity:1;stroke:none"
       id="rect3238"
       width="799.94189"
       height="44.431732"
       x="80.029022"
       y="493.45871" />
    <rect
       y="518.1991"
       x="79.970924"
       height="19.691338"
       width="799.94189"
       id="rect3240"
       style="fill:#ececec;fill-opacity:1;stroke:none" />
    <path
       transform="matrix(0.83327283,0,0,0.83305253,-104.93802,162.63465)"
       d="m 253.21428,423.79074 a 8.5714283,8.5714283 0 1 1 -17.14286,0 8.5714283,8.5714283 0 1 1 17.14286,0 z"
       sodipodi:ry="8.5714283"
       sodipodi:rx="8.5714283"
       sodipodi:cy="423.79074"
       sodipodi:cx="244.64285"
       id="path3242"
       style="fill:#e23747;fill-opacity:1;stroke:none"
       sodipodi:type="arc" />
    <path
       sodipodi:type="arc"
       style="fill:#ffbd00;fill-opacity:1;stroke:none"
       id="path3244"
       sodipodi:cx="244.64285"
       sodipodi:cy="423.79074"
       sodipodi:rx="8.5714283"
       sodipodi:ry="8.5714283"
       d="m 253.21428,423.79074 a 8.5714283,8.5714283 0 1 1 -17.14286,0 8.5714283,8.5714283 0 1 1 17.14286,0 z"
       transform="matrix(0.83327283,0,0,0.83305253,-84.939477,162.63465)" />
    <path
       transform="matrix(0.83327283,0,0,0.83305253,-64.583855,162.63465)"
       d="m 253.21428,423.79074 a 8.5714283,8.5714283 0 1 1 -17.14286,0 8.5714283,8.5714283 0 1 1 17.14286,0 z"
       sodipodi:ry="8.5714283"
       sodipodi:rx="8.5714283"
       sodipodi:cy="423.79074"
       sodipodi:cx="244.64285"
       id="path3246"
       style="fill:#7cd31e;fill-opacity:1;stroke:none"
       sodipodi:type="arc" />
    <g
       transform="matrix(0.99992737,0,0,0.999663,-63.297249,296.34056)"
       id="g3248">
      <g
         transform="matrix(1.1373873,0,0,0.87920797,-16.399876,-77.209893)"
         style="font-size:147.9329071px;font-style:normal;font-variant:normal;font-weight:500;font-stretch:normal;line-height:125%;letter-spacing:0px;word-spacing:0px;fill:#ff5555;fill-opacity:1;stroke:none;font-family:Futura;-inkscape-font-specification:Futura Medium"
         id="g3250" />
      <text
         sodipodi:linespacing="125%"
         id="text3252"
         y="412.48965"
         x="470.03647"
         style="font-size:111.48277283px;font-style:normal;font-variant:normal;font-weight:500;font-stretch:normal;line-height:125%;letter-spacing:0px;word-spacing:0px;fill:#41aacd;fill-opacity:1;stroke:none;font-family:Futura;-inkscape-font-specification:Futura Medium"
         xml:space="preserve"><tspan
           y="412.48965"
           x="470.03647"
           id="tspan3254"
           sodipodi:role="line"
           style="font-style:normal;font-variant:normal;font-weight:normal;font-stretch:normal;fill:#41aacd;fill-opacity:1;font-family:Arvo;-inkscape-font-specification:Arvo">O</tspan></text>
      <rect
         style="opacity:0.6;fill:#ff0032;fill-opacity:1;stroke:none"
         id="rect3256"
         width="12.514884"
         height="32.342583"
         x="287.5629"
         y="453.04535"
         ry="0"
         rx="0"
         transform="matrix(1,0,0.5,0.8660254,0,0)" />
      <g
         style="font-size:65.04891968px;font-style:normal;font-variant:normal;font-weight:500;font-stretch:normal;line-height:125%;letter-spacing:0px;word-spacing:0px;fill:#1a1a1a;fill-opacity:1;stroke:none;font-family:Futura;-inkscape-font-specification:Futura Medium"
         id="g3258"
         transform="matrix(0.85713918,0,0,0.85713918,59.130912,-9.076679)">
        <path
           inkscape:connector-curvature="0"
           d="m 588.94859,458.30568 0,17.75506 c -2e-5,5.1243 2.02217,7.68645 6.06657,7.68644 4.04436,10e-6 6.06655,-2.56214 6.06657,-7.68644 l 0,-17.75506 7.14649,0 0,17.91387 c -3e-5,2.47746 -0.30706,4.61611 -0.9211,6.41595 -0.59292,1.60929 -1.6199,3.05976 -3.08093,4.35142 -2.41395,2.0963 -5.48429,3.14445 -9.21103,3.14446 -3.7056,-10e-6 -6.76535,-1.04816 -9.17927,-3.14446 -1.48224,-1.29166 -2.53039,-2.74213 -3.14445,-4.35142 -0.5929,-1.43987 -0.88935,-3.57852 -0.88934,-6.41595 l 0,-17.91387 7.14649,0"
           id="path3260" />
        <path
           inkscape:connector-curvature="0"
           d="m 645.42172,475.45725 -22.16999,0 c 0.19056,2.54099 1.01637,4.56318 2.47745,6.06658 1.46104,1.48224 3.33501,2.22336 5.6219,2.22335 1.77866,10e-6 3.25031,-0.42349 4.41494,-1.27049 1.14341,-0.84698 2.44566,-2.41391 3.90675,-4.7008 l 6.03481,3.36679 c -0.93172,1.58812 -1.91635,2.95389 -2.95388,4.09732 -1.0376,1.12227 -2.14927,2.05396 -3.33503,2.79507 -1.18581,0.71995 -2.46689,1.24931 -3.84322,1.58811 -1.37638,0.3388 -2.8692,0.50819 -4.47847,0.5082 -4.61611,-10e-6 -8.3217,-1.48224 -11.11676,-4.44671 -2.79507,-2.98564 -4.19261,-6.94531 -4.1926,-11.87905 -10e-6,-4.89135 1.35518,-8.85103 4.06555,-11.87905 2.73154,-2.98561 6.35242,-4.47843 10.86267,-4.47847 4.55255,4e-5 8.15226,1.45051 10.79913,4.35142 2.62564,2.8798 3.93848,6.87124 3.93851,11.97434 l -0.0318,1.68339 m -7.33706,-5.84423 c -0.99524,-3.81144 -3.39857,-5.71717 -7.21001,-5.7172 -0.86819,3e-5 -1.68341,0.13767 -2.44569,0.41291 -0.76231,0.25413 -1.46107,0.63527 -2.0963,1.14344 -0.61408,0.48704 -1.14345,1.07994 -1.58811,1.77868 -0.44468,0.69879 -0.78348,1.49285 -1.01639,2.38217 l 14.3565,0"
           id="path3262" />
      </g>
    </g>
    <g
       transform="matrix(0.99992737,0,0,0.999663,-33.745995,379.8838)"
       id="g3264">
      <rect
         style="fill:#ffffff;fill-opacity:1;stroke:#ececec;stroke-width:2.00040984;stroke-miterlimit:4;stroke-opacity:1;stroke-dasharray:none"
         id="rect3266"
         width="402.36606"
         height="28.815166"
         x="312.53754"
         y="384.37106"
         rx="2.2730081"
         ry="2.2736094" />
      <rect
         ry="0"
         rx="0"
         y="384.37106"
         x="692.12842"
         height="28.815166"
         width="22.017569"
         id="rect3268"
         style="fill:#ececec;fill-opacity:1;stroke:none" />
      <g
         id="text3270"
         style="font-size:21.68901062px;font-style:normal;font-variant:normal;font-weight:normal;font-stretch:normal;line-height:125%;letter-spacing:0px;word-spacing:0px;fill:#4d4d4d;fill-opacity:1;stroke:none;font-family:Asap;-inkscape-font-specification:Asap"
         transform="matrix(0.75726006,0,0,1.3205503,0,2.084142)">
        <path
           inkscape:connector-curvature="0"
           id="path3428"
           d="m 924.70985,296.21663 0,-1.92744 13.57681,4.92451 0,1.75799 -13.57681,4.92451 0,-1.92744 10.90804,-3.86547 -10.90804,-3.88666" />
      </g>
    </g>
  </g>
</svg>
